<?xml version="1.0" standalone="no"?>
<!DOCTYPE svg PUBLIC "-//W3C//DTD SVG 20010904//EN"
 "http://www.w3.org/TR/2001/REC-SVG-20010904/DTD/svg10.dtd">
<svg version="1.0" xmlns="http://www.w3.org/2000/svg"
 width="512.000000pt" height="512.000000pt" viewBox="0 0 512.000000 512.000000"
 preserveAspectRatio="xMidYMid meet">

<g transform="translate(0.000000,512.000000) scale(0.100000,-0.100000)"
fill="#000000" stroke="none">
<path d="M0 4613 l0 -39 105 -13 c357 -41 510 -155 561 -417 25 -131 33 -516
33 -1584 0 -1068 -8 -1452 -33 -1585 -9 -44 -32 -112 -51 -152 -77 -157 -218
-231 -505 -265 l-105 -13 -3 -39 -3 -38 93 6 c459 33 1347 32 1831 0 l97 -7 0
40 0 39 -109 12 c-138 15 -286 53 -354 89 -141 76 -218 218 -234 431 l-6 83
84 -5 c46 -4 194 -11 328 -17 l244 -10 124 123 c68 68 119 124 114 126 -5 2
-115 9 -243 15 l-233 12 95 54 c311 177 351 266 425 971 22 213 24 220 45 220
13 0 35 -31 75 -107 191 -359 563 -913 759 -1133 90 -100 198 -193 271 -232
50 -27 71 -33 125 -33 77 0 128 22 223 96 34 26 63 46 65 45 7 -8 -21 -292
-34 -343 -62 -242 -210 -345 -549 -384 l-105 -13 0 -39 0 -39 88 6 c433 32
1441 32 1825 0 l77 -6 0 39 0 40 -101 12 c-282 34 -434 113 -506 263 -78 159
-83 267 -83 1738 0 1462 6 1579 79 1736 73 156 216 233 497 266 l104 12 0 39
0 39 -77 -6 c-390 -32 -1269 -32 -1805 0 l-108 6 0 -39 0 -39 105 -12 c136
-16 282 -54 347 -89 140 -76 213 -210 234 -430 l7 -73 -26 0 c-39 0 -182 -48
-274 -91 -95 -45 -251 -148 -373 -246 -169 -135 -448 -421 -674 -690 -77 -92
-78 -93 -123 -93 l-45 0 6 38 c3 20 17 143 31 272 23 212 62 463 113 733 l19
97 -142 0 c-379 0 -678 -70 -924 -215 l-91 -54 0 92 c1 534 124 697 569 749
l101 12 0 39 0 39 -72 -6 c-359 -32 -1301 -32 -1805 0 l-103 6 0 -39z m2060
-890 c0 -23 -88 -797 -95 -840 l-6 -33 -324 0 -325 0 0 359 0 360 28 19 c79
56 202 101 342 126 102 18 143 22 278 24 91 2 102 0 102 -15z m1738 -19 l22
-6 0 -424 0 -424 -591 0 -591 0 47 87 c215 397 549 699 850 769 59 14 213 13
263 -2z m-1862 -1091 c-3 -21 -20 -157 -36 -303 -37 -320 -52 -412 -86 -521
-41 -132 -99 -234 -176 -312 l-67 -67 -88 7 c-49 5 -107 8 -130 8 l-43 0 0
613 0 612 316 0 316 0 -6 -37z m1882 -535 l-3 -572 -40 -23 c-101 -57 -178
-38 -293 71 -76 72 -343 419 -508 661 -88 129 -264 414 -264 427 0 4 250 8
555 8 l555 0 -2 -572z"/>
</g>
</svg>
