<?xml version="1.0" standalone="no"?>
<!DOCTYPE svg PUBLIC "-//W3C//DTD SVG 20010904//EN"
 "http://www.w3.org/TR/2001/REC-SVG-20010904/DTD/svg10.dtd">
<svg version="1.0" xmlns="http://www.w3.org/2000/svg"
 width="512.000000pt" height="512.000000pt" viewBox="0 0 512.000000 512.000000"
 preserveAspectRatio="xMidYMid meet">

<g transform="translate(0.000000,512.000000) scale(0.100000,-0.100000)"
fill="#000000" stroke="none">
<path d="M2395 4564 c-349 -37 -653 -142 -930 -322 -127 -83 -224 -163 -346
-288 -293 -302 -471 -657 -546 -1089 -12 -73 -17 -157 -17 -310 0 -153 5 -237
17 -310 75 -432 253 -787 546 -1089 122 -125 219 -205 346 -288 237 -154 498
-255 790 -305 139 -23 481 -23 620 0 292 50 553 151 790 305 127 83 224 163
346 288 293 301 472 658 546 1089 23 139 23 481 0 620 -62 360 -207 687 -424
955 -83 102 -260 273 -360 347 -266 198 -563 323 -893 378 -92 15 -403 27
-485 19z m-125 -956 c0 -13 -13 -18 -57 -24 -111 -13 -178 -40 -221 -89 -48
-55 -62 -104 -69 -244 l-6 -103 39 24 c115 73 245 108 427 115 75 3 137 2 137
-2 0 -4 -11 -69 -25 -144 -20 -109 -55 -379 -55 -422 0 -5 10 -9 23 -9 16 0
47 29 112 106 158 186 343 350 470 417 22 11 65 28 95 38 l55 17 -1 56 c-2 72
-36 141 -90 178 -39 27 -115 50 -206 63 -36 5 -48 11 -48 23 0 16 37 17 515
17 475 0 515 -1 515 -17 0 -13 -13 -18 -57 -24 -154 -18 -236 -69 -270 -168
-17 -47 -18 -109 -18 -861 l0 -810 23 -50 c44 -94 92 -126 228 -150 47 -8 91
-15 95 -15 5 0 9 -8 9 -17 0 -17 -31 -18 -520 -18 -481 0 -520 1 -520 17 0 13
12 18 48 23 209 26 282 89 301 263 4 42 7 78 6 80 -2 2 -24 -11 -51 -27 -89
-57 -152 -35 -275 96 -106 113 -279 367 -399 586 -23 43 -44 76 -47 73 -2 -2
-13 -80 -24 -172 -33 -290 -55 -343 -175 -423 l-76 -51 60 0 c32 0 87 -3 121
-7 l62 -6 -63 -64 -63 -64 -176 7 -176 6 8 -61 c16 -111 64 -175 156 -205 40
-13 158 -36 186 -36 4 0 7 -8 7 -17 0 -17 -31 -18 -520 -18 -475 0 -520 1
-520 16 0 12 13 18 48 23 184 25 251 67 290 183 14 42 17 136 20 782 2 472 -1
765 -7 820 -22 178 -89 237 -303 266 -36 5 -48 10 -48 23 0 16 36 17 515 17
475 0 515 -1 515 -17z"/>
<path d="M2150 3150 c-73 -9 -157 -35 -197 -60 l-33 -20 0 -180 0 -180 169 0
169 0 6 38 c3 20 12 102 21 182 8 80 18 164 21 188 l5 42 -53 -1 c-29 -1 -78
-5 -108 -9z"/>
<path d="M3066 3149 c-121 -29 -297 -180 -394 -339 -29 -46 -52 -88 -52 -92 0
-4 133 -8 295 -8 l295 0 0 219 c0 218 0 219 -22 225 -31 8 -74 6 -122 -5z"/>
<path d="M1920 2288 l0 -323 71 1 c67 1 73 3 106 35 75 73 103 163 133 422 11
97 20 179 20 182 0 3 -74 5 -165 5 l-165 0 0 -322z"/>
<path d="M2661 2573 c108 -182 315 -470 385 -539 50 -48 83 -59 130 -44 l34
12 0 304 0 304 -286 0 -286 0 23 -37z"/>
</g>
</svg>
