<?xml version="1.0" standalone="no"?>
<!DOCTYPE svg PUBLIC "-//W3C//DTD SVG 20010904//EN"
 "http://www.w3.org/TR/2001/REC-SVG-20010904/DTD/svg10.dtd">
<svg version="1.0" xmlns="http://www.w3.org/2000/svg"
 width="512.000000pt" height="512.000000pt" viewBox="0 0 512.000000 512.000000"
 preserveAspectRatio="xMidYMid meet">

<g transform="translate(0.000000,512.000000) scale(0.100000,-0.100000)"
fill="#000000" stroke="none">
<path d="M1240 3609 c0 -11 18 -18 73 -27 39 -6 88 -16 108 -22 76 -21 134
-79 161 -159 16 -48 24 -1499 9 -1613 -22 -160 -88 -223 -265 -249 -59 -9 -76
-15 -76 -28 0 -15 46 -16 515 -16 470 0 515 1 515 16 0 12 -13 18 -47 23 -126
17 -199 44 -240 88 -30 32 -59 103 -67 162 l-6 49 173 -7 172 -6 64 64 64 64
-123 7 -122 8 54 29 c59 32 122 89 143 128 24 47 44 143 60 300 9 85 20 164
24 174 6 15 19 -2 66 -85 140 -250 326 -511 434 -611 95 -88 157 -98 241 -37
l42 30 -7 -68 c-21 -190 -83 -256 -272 -284 -64 -10 -83 -16 -83 -28 0 -14 53
-16 520 -16 467 0 520 2 520 16 0 12 -19 18 -82 28 -145 22 -218 68 -255 161
-17 42 -18 103 -21 820 -3 552 0 794 8 842 23 134 92 194 253 219 59 9 77 15
77 28 0 14 -47 16 -510 16 -479 0 -510 -1 -510 -17 0 -11 8 -18 20 -18 37 0
174 -31 205 -47 74 -37 125 -126 125 -217 0 -42 -1 -44 -34 -49 -51 -8 -171
-71 -256 -135 -86 -64 -266 -242 -359 -354 -47 -57 -70 -78 -87 -78 -16 0 -24
6 -24 18 1 74 52 438 77 541 l6 24 -134 -6 c-163 -7 -262 -31 -381 -91 l-88
-44 0 78 c0 232 61 315 254 348 72 12 96 20 96 32 0 13 -60 15 -515 15 -461 0
-515 -2 -515 -16z m1070 -456 c0 -19 -41 -401 -46 -420 -4 -23 -6 -23 -174
-23 l-170 0 0 180 0 180 33 20 c39 25 112 49 175 60 62 10 182 12 182 3z m884
1 c14 -5 16 -35 16 -225 l0 -219 -295 0 c-162 0 -295 2 -295 5 0 13 36 74 83
143 94 137 255 267 360 292 40 10 110 12 131 4z m-944 -554 c0 -49 -44 -377
-56 -420 -22 -77 -73 -168 -107 -194 -23 -17 -43 -21 -98 -21 l-69 0 0 323 0
322 165 0 c104 0 165 -4 165 -10z m960 -293 l0 -304 -25 -11 c-41 -19 -69 -14
-114 18 -61 45 -301 371 -406 553 l-27 47 286 0 286 0 0 -303z"/>
</g>
</svg>
